<svg width="222" height="190" viewBox="0 0 222 190" fill="none" xmlns="http://www.w3.org/2000/svg">
<path fill-rule="evenodd" clip-rule="evenodd" d="M34.898 12C32.3454 21.0238 48.9901 45.2008 58.5467 49.9138C60.1738 50.7162 63.6707 51.415 68.4471 51.9993C75.1113 54.369 77.0353 69.0336 78.8309 82.72L78.8309 82.7201C79.7771 89.9317 80.6876 96.8717 82.2372 101.598C86.934 115.925 101.863 132.562 111.005 132.562C119.756 132.562 133.902 116.793 138.012 101.598C139.162 97.3475 139.714 91.5689 140.299 85.4499C141.605 71.7828 143.074 56.4178 151.724 52.5874C157.977 51.9293 162.574 51.0443 164.514 49.9138C173.862 44.4651 188.637 21.5307 188.231 12.4824C206.075 13.9178 218.538 15.8962 221.018 18.3566C231.728 28.9822 133.28 190 111.035 190C88.7911 190 -11.3053 30.6168 1.05253 18.3566C3.92354 15.5083 16.7549 13.4099 34.898 12Z" fill="#1A6BC6"/>
<path fill-rule="evenodd" clip-rule="evenodd" d="M176.719 4.36179C173.142 -1.25172 50.4365 -1.65269 45.0705 4.36179C39.7044 10.3763 55.8028 34.4343 64.7462 38.845C67.2612 40.0853 74.9253 41.0403 84.8425 41.6563C88.712 44.0806 89.8597 56.536 90.9322 68.1759C91.5088 74.4329 92.0636 80.4542 93.0078 84.5552C95.8697 96.9852 104.966 111.42 110.537 111.42C115.869 111.42 124.489 97.7382 126.993 84.5552C127.694 80.8671 128.03 75.8534 128.387 70.5444C129.191 58.5587 130.097 45.068 135.52 41.9282C145.953 41.371 154.081 40.3631 156.685 38.845C165.629 33.6324 180.296 9.9753 176.719 4.36179Z" fill="#109CF1"/>
</svg>
